<?xml version="1.0" encoding="utf-8"?>
<!-- Generator: Adobe Illustrator 23.0.1, SVG Export Plug-In . SVG Version: 6.00 Build 0)  -->
<svg version="1.1" id="Layer_1" xmlns="http://www.w3.org/2000/svg" xmlns:xlink="http://www.w3.org/1999/xlink" x="0px" y="0px"
	 viewBox="0 0 567 567" style="enable-background:new 0 0 567 567;" xml:space="preserve">
<style type="text/css">
	.st0{fill:#1F98D5;}
	.st1{fill:#FFFFFF;}
</style>
<title>B-sign-alternative</title>
<g id="Layer_2_1_">
	<g id="Layer_1-2">
		<path class="st0" d="M164.4,11h238.2C487.3,11,556,79.7,556,164.4v238.2c0,84.7-68.7,153.4-153.4,153.4H164.4
			C79.7,556,11,487.3,11,402.6V164.4C11,79.7,79.7,11,164.4,11z"/>
		<path class="st1" d="M476.9,231.7C453.7,145.2,372.9,83.4,283.3,83.4c-25.8,0-51.4,5.1-75.3,15.1l0,0
			c-29.2,12.2-55.5,32.2-75.9,55.7l0,0l-0.6,0.7l-0.5,0.5l0,0C90.9,203.2,72.4,268.6,90.1,334c13.1,48.3,42.6,81.3,39.7,78l2.1-1.2
			l-2.1,1.2c20.9,24.3,47.1,43.3,76.7,55.7c55,23,119.8,22.4,176-9.5C460.8,413.4,500.3,318.9,476.9,231.7z M344.2,454
			c-44.5,15.9-92.4,12.8-133.8-5.4c-23.9-10.6-45.4-26.1-63-45.4l0,0c64.6-29.2,189.1-18.3,190.8-18.3c24.7-0.1,31.1-0.9,41.2-8.7
			c7.6-5.8,12.2-13.8,12.2-28.8v-24.9c0-10.4-2.9-18.9-8.7-25.4c-5.8-6.5-14-10.5-24.6-12c10.3-1.4,18.1-4.8,23.7-10.4
			c5.5-5.6,8.3-13.1,8.2-22.4v-23.8c0-13.1-3.3-22.7-9.8-28.7c-6.5-6-17.1-9-31.7-9c-65,0.2-137.7,2.5-199.9-27.3
			c6.6-7.5,13.9-14.4,21.6-20.7c12.9-10.4,27.2-18.9,42.5-25.3l0,0c22.3-9.4,46.2-14.3,70.4-14.3c86.6,0,163.1,64,178,149.4
			C476.3,338.2,426.2,424.7,344.2,454z M330.6,301c8.2,0,13.7,1.3,16.6,3.8c2.9,2.5,4.3,7,4.3,13.5v14.7c0,6.5-1.4,11.1-4.3,13.6
			c-2.9,2.6-8.4,3.9-16.6,3.8h-98.4V301H330.6z M232.3,269v-46.4h98.4c7.5,0,12.7,1.1,15.5,3.2c2.9,2.1,4.3,5.7,4.3,10.8V255
			c0,5.2-1.4,8.8-4.3,10.9c-2.9,2.1-8,3.1-15.5,3.1L232.3,269z"/>
	</g>
</g>
</svg>
